HIERARCHY
ROOT hip
{
  OFFSET 7.8145 41.1671 20.687
  CHANNELS 6 Xposition Yposition Zposition Zrotation Xrotation Yrotation
  JOINT rButtock
  {
    OFFSET -4.19761 -0.599656 -0.299829
    CHANNELS 3 Zrotation Xrotation Yrotation
    JOINT rThigh
    {
      OFFSET 0 -1.49915 0
      CHANNELS 3 Zrotation Xrotation Yrotation
      JOINT rShin
      {
        OFFSET 0.699602 -17.6899 -1.09938
        CHANNELS 3 Zrotation Xrotation Yrotation
        JOINT rFoot
        {
          OFFSET -0.699602 -18.0897 -0.699602
          CHANNELS 3 Zrotation Xrotation Yrotation
          End Site
          {
            OFFSET 0 -2.09881 5.59681
          }
        }
      }
    }
  }
  JOINT lButtock
  {
    OFFSET 4.19761 -0.599656 -0.299829
    CHANNELS 3 Zrotation Xrotation Yrotation
    JOINT lThigh
    {
      OFFSET 0 -1.49914 0
      CHANNELS 3 Zrotation Xrotation Yrotation
      JOINT lShin
      {
        OFFSET -0.699602 -17.6899 -1.09937
        CHANNELS 3 Zrotation Xrotation Yrotation
        JOINT lFoot
        {
          OFFSET 0.699602 -18.0897 -0.699602
          CHANNELS 3 Zrotation Xrotation Yrotation
          End Site
          {
            OFFSET 0 -2.0988 5.59681
          }
        }
      }
    }
  }
  JOINT abdomen
  {
    OFFSET 0 6.09653 0.699602
    CHANNELS 3 Zrotation Xrotation Yrotation
    JOINT chest
    {
      OFFSET 0 2.49857 -0.699602
      CHANNELS 3 Zrotation Xrotation Yrotation
      JOINT rCollar
      {
        OFFSET -1.49915 11.2936 -1.69903
        CHANNELS 3 Zrotation Xrotation Yrotation
        JOINT rShldr
        {
          OFFSET -4.89721 -0.299829 0.799545
          CHANNELS 3 Zrotation Xrotation Yrotation
          JOINT rForeArm
          {
            OFFSET -12.4216 -1.19922 0.931564
            CHANNELS 3 Zrotation Xrotation Yrotation
            JOINT rHand
            {
              OFFSET -9.86568 0.0998477 3.66582
              CHANNELS 3 Zrotation Xrotation Yrotation
              JOINT rPinky1
              {
                OFFSET -3.29812 0.0999423 -0.399772
                CHANNELS 3 Zrotation Xrotation Yrotation
                JOINT rPinky2
                {
                  OFFSET -0.899492 -0.0999405 0
                  CHANNELS 3 Zrotation Xrotation Yrotation
                  End Site
                  {
                    OFFSET -0.999429 -0.0999421 0
                  }
                }
              }
              JOINT rRing1
              {
                OFFSET -3.39807 0.399775 0.299829
                CHANNELS 3 Zrotation Xrotation Yrotation
                JOINT rRing2
                {
                  OFFSET -1.29926 -0.199888 0.399772
                  CHANNELS 3 Zrotation Xrotation Yrotation
                  End Site
                  {
                    OFFSET -0.899487 -0.0999402 0.199886
                  }
                }
              }
              JOINT rIndex1
              {
                OFFSET -2.69847 0.399775 2.09881
                CHANNELS 3 Zrotation Xrotation Yrotation
                JOINT rIndex2
                {
                  OFFSET -1.33823 -0.200883 0.6843
                  CHANNELS 3 Zrotation Xrotation Yrotation
                  End Site
                  {
                    OFFSET -0.760569 0.00099747 0.415074
                  }
                }
              }
              JOINT rMid1
              {
                OFFSET -2.99829 0.499717 1.09937
                CHANNELS 3 Zrotation Xrotation Yrotation
                JOINT rMid2
                {
                  OFFSET -1.45827 -0.0999391 0.600149
                  CHANNELS 3 Zrotation Xrotation Yrotation
                  End Site
                  {
                    OFFSET -1.0403 -0.0999474 0.399282
                  }
                }
              }
              JOINT rThumb1
              {
                OFFSET -0.399773 -0.39977 1.19932
                CHANNELS 3 Zrotation Xrotation Yrotation
                JOINT rThumb2
                {
                  OFFSET -0.998132 0 1.47145
                  CHANNELS 3 Zrotation Xrotation Yrotation
                  End Site
                  {
                    OFFSET -0.977841 -0.278837 0.829828
                  }
                }
              }
            }
          }
        }
      }
      JOINT lCollar
      {
        OFFSET 1.49915 11.2936 -1.69903
        CHANNELS 3 Zrotation Xrotation Yrotation
        JOINT lShldr
        {
          OFFSET 4.89721 -0.299833 0.799545
          CHANNELS 3 Zrotation Xrotation Yrotation
          JOINT lForeArm
          {
            OFFSET 12.4216 -1.19922 0.931564
            CHANNELS 3 Zrotation Xrotation Yrotation
            JOINT lHand
            {
              OFFSET 9.86568 0.0998482 3.66582
              CHANNELS 3 Zrotation Xrotation Yrotation
              JOINT lMid1
              {
                OFFSET 2.99829 0.499714 1.09937
                CHANNELS 3 Zrotation Xrotation Yrotation
                JOINT lMid2
                {
                  OFFSET 1.45827 -0.0999388 0.600149
                  CHANNELS 3 Zrotation Xrotation Yrotation
                  End Site
                  {
                    OFFSET 1.04031 -0.0999473 0.399282
                  }
                }
              }
              JOINT lPinky1
              {
                OFFSET 3.29812 0.0999421 -0.399772
                CHANNELS 3 Zrotation Xrotation Yrotation
                JOINT lPinky2
                {
                  OFFSET 0.899488 -0.0999427 0
                  CHANNELS 3 Zrotation Xrotation Yrotation
                  End Site
                  {
                    OFFSET 0.999427 -0.0999418 0
                  }
                }
              }
              JOINT lIndex1
              {
                OFFSET 2.69846 0.399775 2.09881
                CHANNELS 3 Zrotation Xrotation Yrotation
                JOINT lIndex2
                {
                  OFFSET 1.33823 -0.200884 0.6843
                  CHANNELS 3 Zrotation Xrotation Yrotation
                  End Site
                  {
                    OFFSET 0.760567 0.00099574 0.415074
                  }
                }
              }
              JOINT lThumb1
              {
                OFFSET 0.399772 -0.399773 1.19932
                CHANNELS 3 Zrotation Xrotation Yrotation
                JOINT lThumb2
                {
                  OFFSET 0.99813 0 1.47145
                  CHANNELS 3 Zrotation Xrotation Yrotation
                  End Site
                  {
                    OFFSET 0.97784 -0.27884 0.829828
                  }
                }
              }
              JOINT lRing1
              {
                OFFSET 3.39806 0.399773 0.299829
                CHANNELS 3 Zrotation Xrotation Yrotation
                JOINT lRing2
                {
                  OFFSET 1.29926 -0.199886 0.399772
                  CHANNELS 3 Zrotation Xrotation Yrotation
                  End Site
                  {
                    OFFSET 0.899489 -0.0999425 0.199886
                  }
                }
              }
            }
          }
        }
      }
      JOINT neck
      {
        OFFSET 0 12.4929 -0.499715
        CHANNELS 3 Zrotation Xrotation Yrotation
        JOINT head
        {
          OFFSET 0 3.59795 0.299829
          CHANNELS 3 Zrotation Xrotation Yrotation
          JOINT rightEye
          {
            OFFSET -1.19932 3.69789 3.19818
            CHANNELS 3 Zrotation Xrotation Yrotation
            End Site
            {
              OFFSET 0 0 0
            }
          }
          JOINT leftEye
          {
            OFFSET 1.19932 3.69789 3.19818
            CHANNELS 3 Zrotation Xrotation Yrotation
            End Site
            {
              OFFSET 0 0 0
            }
          }
        }
      }
    }
  }
}
MOTION
Frames:	6
Frame Time:	0.0333333
7.8145 41.1671 20.687 -4.14317 -12.1416 -31.038 -0.00975517 -0.00969887 -0.00983547 -3.73796 4.10564 -7.41274 2.05291 26.3039 -5.9233 -0.350557 -18.4001 0.678728 -0.00975517 -0.00983547 -0.00969887 14.3603 -3.58466 33.6467 -0.0744244 16.741 -0.0759773 -0.527357 1.02163 0.0645979 -0.00975517 -0.00975351 -0.00975351 -0.501748 11.0921 2.98163 7.58492 -0.500857 -9.66262 60.4921 -3.42861 -11.6957 6.25493 0.338788 28.1271 -3.1263 -1.27903 5.16291 -0.00953421 -0.0539345 -0.0110762 0.629425 -0.00953167 -0.000952459 -0.00767897 -0.0535262 -0.0111902 2.4273 -0.497514 4.43291 -0.00543757 -0.0528611 -0.011 8.61207 -0.00171995 -1.79828 -0.00604407 -0.053987 -0.0103929 -0.219775 0.404223 1.44943 -0.0807453 53.9427 17.2594 -9.39785 -7.91692 -0.663799 -4.71956 0.277504 3.94442 -63.4241 12.1981 20.071 -5.49174 0.908117 -47.2636 2.46356 -0.987052 -3.98461 -0.0134212 -0.0553256 -0.00918207 0.204762 0.414793 -1.45043 -0.00974195 -0.0566359 -0.00839407 -0.630083 -0.00995829 0.00100904 -0.0140574 -0.0557317 -0.00841043 -8.62306 -0.0231749 1.79819 -0.155265 53.9773 -17.0416 9.41156 -7.94154 0.625637 -0.0117781 -0.0566143 -0.00819099 -2.42863 -0.502347 -4.43241 -2.84881 -10.9239 -3.49802 -0.948882 21.4481 20.7551 0 0 0 0 0 0 
8.01413 41.1612 20.691 -3.32335 -10.1605 -32.3697 -0.00975517 -0.00969887 -0.00983547 -3.95476 0.903354 -4.28971 2.62777 27.5891 -6.96061 0.157629 -19.7477 0.798116 -0.00975517 -0.00983547 -0.00969887 15.1907 -6.317 35.4614 -0.130291 18.752 0.273626 0.246313 0.233239 -0.0010068 -0.00975517 -0.00975351 -0.00975351 -0.553846 10.4766 3.52482 6.75384 -0.586069 -10.8746 61.0987 0.215691 -11.2167 6.38949 0.267829 31.078 -3.15609 -1.28585 4.89987 -0.00953421 -0.0539345 -0.0110762 0.629425 -0.00953167 -0.000952459 -0.00767897 -0.0535262 -0.0111902 2.4273 -0.497514 4.43291 -0.00543757 -0.0528611 -0.011 8.61207 -0.00171995 -1.79828 -0.00604407 -0.053987 -0.0103929 -0.219775 0.404223 1.44943 -0.0807453 53.9427 17.2594 -9.39785 -7.91692 -0.663799 -4.87226 0.177429 5.84857 -62.9411 18.1383 15.7506 -6.09595 0.606224 -40.5428 2.72612 -1.11021 -4.85078 -0.0134212 -0.0553256 -0.00918207 0.204762 0.414793 -1.45043 -0.00974195 -0.0566359 -0.00839407 -0.630083 -0.00995829 0.00100904 -0.0140574 -0.0557317 -0.00841043 -8.62285 -0.0231749 1.79819 -0.155265 53.9773 -17.0416 9.41156 -7.94154 0.625637 -0.0117781 -0.0566143 -0.00819099 -2.42863 -0.502347 -4.43241 -2.7779 -10.2925 -3.98512 -0.638039 18.8502 21.329 0 0 0 0 0 0 
8.10892 41.153 20.7939 -2.74364 -9.14011 -32.5875 -0.00975517 -0.00969887 -0.00983547 -4.24354 -0.607557 -3.31282 2.94358 28.2684 -7.49572 0.549724 -21.0252 0.909811 -0.00975517 -0.00983547 -0.00969887 15.9348 -8.68008 35.4464 -0.448659 21.6307 1.40896 0.733369 -0.867066 -0.0563496 -0.00975517 -0.00975351 -0.00975351 -0.728209 10.1224 3.52602 6.14165 -0.540926 -10.325 61.5989 1.65084 -11.8545 6.3837 0.295427 32.5521 -3.12491 -1.26992 4.77095 -0.00953421 -0.0539345 -0.0110762 0.629425 -0.00953167 -0.000952459 -0.00767897 -0.0535262 -0.0111902 2.4273 -0.497514 4.43291 -0.00543757 -0.0528611 -0.011 8.61207 -0.00171995 -1.79828 -0.00604407 -0.053987 -0.0103929 -0.219775 0.404223 1.44943 -0.0807453 53.9427 17.2594 -9.39785 -7.91692 -0.663799 -4.69501 0.184355 5.62529 -63.139 21.5017 14.596 -6.28037 0.468509 -37.6327 2.80618 -1.15172 -5.27889 -0.0134212 -0.0553256 -0.00918207 0.204762 0.414793 -1.45043 -0.00974195 -0.0566359 -0.00839407 -0.630083 -0.00995829 0.00100904 -0.0140574 -0.0557317 -0.00841043 -8.62275 -0.0231749 1.79819 -0.155265 53.9773 -17.0416 9.41156 -7.94154 0.625637 -0.0117781 -0.0566143 -0.00819099 -2.42863 -0.502347 -4.43241 -2.5557 -9.95247 -3.93644 -0.385959 16.3863 21.2516 0 0 0 0 0 0 
8.18591 41.1444 20.915 -2.24346 -8.24018 -32.6022 -0.00975517 -0.00969887 -0.00983547 -4.46013 -1.77204 -3.05191 3.11418 28.6618 -7.7393 0.839807 -21.9299 0.996582 -0.00975517 -0.00983547 -0.00969887 16.6699 -11.3075 33.5979 -1.35919 25.1738 4.23772 1.0182 -2.33562 -0.109011 -0.00975517 -0.00975351 -0.00975351 -0.962442 9.85502 3.89643 5.74531 -0.424354 -8.54413 61.9316 1.83697 -12.9457 6.27608 0.380733 32.874 -3.07227 -1.24746 4.7539 -0.00953421 -0.0539345 -0.0110762 0.629425 -0.00953167 -0.000952459 -0.00767897 -0.0535262 -0.0111902 2.4273 -0.497514 4.43291 -0.00543757 -0.0528611 -0.011 8.61207 -0.00171995 -1.79828 -0.00604407 -0.053987 -0.0103929 -0.219775 0.404223 1.44943 -0.0807453 53.9427 17.2594 -9.39785 -7.91692 -0.663799 -4.12024 0.235813 4.22221 -63.8759 22.2575 15.2357 -6.16781 0.538038 -37.5522 2.74078 -1.12528 -5.35473 -0.0134212 -0.0553256 -0.00918207 0.204762 0.414793 -1.45043 -0.00974195 -0.0566359 -0.00839407 -0.630083 -0.00995829 0.00100904 -0.0140574 -0.0557317 -0.00841043 -8.62266 -0.0231749 1.79819 -0.155265 53.9773 -17.0416 9.41156 -7.94154 0.625637 -0.0117781 -0.0566143 -0.00819099 -2.42863 -0.502347 -4.43241 -2.30123 -9.69116 -4.25162 -0.321724 13.8971 21.7581 0 0 0 0 0 0 
8.3195 41.1582 21.0189 -1.63242 -6.83024 -33.4321 -0.00975517 -0.00969887 -0.00983547 -4.51444 -3.54255 -2.15927 3.15611 28.8192 -7.69266 1.16935 -22.5014 1.07766 -0.00975517 -0.00983547 -0.00969887 17.485 -14.2177 31.2544 -2.92539 28.6031 8.1134 1.06602 -4.07119 -0.161017 -0.00975517 -0.00975351 -0.00975351 -1.27498 9.60048 5.02397 5.38188 -0.30531 -6.53007 62.2453 1.81228 -13.5172 6.20188 0.432001 32.479 -3.03614 -1.2333 4.80259 -0.00953421 -0.0539345 -0.0110762 0.629425 -0.00953167 -0.000952459 -0.00767897 -0.0535262 -0.0111902 2.4273 -0.497514 4.43291 -0.00543757 -0.0528611 -0.011 8.61207 -0.00171995 -1.79828 -0.00604407 -0.053987 -0.0103929 -0.219775 0.404223 1.44943 -0.0807453 53.9427 17.2594 -9.39785 -7.91692 -0.663799 -3.32314 0.253793 2.98046 -64.7957 22.0279 16.3468 -6.00098 0.648147 -38.5832 2.6561 -1.08789 -5.27421 -0.0134212 -0.0553256 -0.00918207 0.204762 0.414793 -1.45043 -0.00974195 -0.0566359 -0.00839407 -0.630083 -0.00995829 0.00100904 -0.0140574 -0.0557317 -0.00841043 -8.62257 -0.0231749 1.79819 -0.155265 53.9773 -17.0416 9.41156 -7.94154 0.625637 -0.0117781 -0.0566143 -0.00819099 -2.42863 -0.502347 -4.43241 -2.00052 -9.43384 -5.30459 -0.418614 11.3206 23.344 0 0 0 0 0 0 
8.49146 41.1734 21.2594 -1.29097 -5.75019 -34.9194 -0.00975517 -0.00969887 -0.00983547 -4.58005 -4.71817 -0.811071 3.02265 28.6692 -7.83406 1.85051 -22.68 1.19833 -0.00975517 -0.00983547 -0.00969887 17.8714 -15.9352 29.6813 -4.35175 30.8886 11.0755 1.06186 -5.93726 -0.216179 -0.00975517 -0.00975351 -0.00975351 -1.65755 9.82605 6.03586 4.71522 -0.201788 -4.3334 62.8399 1.99347 -13.7491 6.14619 0.46904 31.904 -3.02646 -1.22966 4.82286 -0.00953421 -0.0539345 -0.0110762 0.629425 -0.00953167 -0.000952459 -0.00767897 -0.0535262 -0.0111902 2.4273 -0.497514 4.43291 -0.00543757 -0.0528611 -0.011 8.61207 -0.00171995 -1.79828 -0.00604407 -0.053987 -0.0103929 -0.219775 0.404223 1.44943 -0.0807453 53.9427 17.2594 -9.39785 -7.91692 -0.663799 -2.10628 0.174288 3.37603 -66.2426 22.4331 17.4296 -5.79633 0.771923 -39.5308 2.56107 -1.04592 -5.17331 -0.0134212 -0.0553256 -0.00918207 0.204762 0.414793 -1.45043 -0.00974195 -0.0566359 -0.00839407 -0.630083 -0.00995829 0.00100904 -0.0140574 -0.0557317 -0.00841043 -8.62248 -0.0231749 1.79819 -0.155265 53.9773 -17.0416 9.41156 -7.94154 0.625637 -0.0117781 -0.0566143 -0.00819099 -2.42863 -0.502347 -4.43241 -1.63609 -9.68167 -6.24218 -0.575392 9.41856 24.7853 0 0 0 0 0 0 
